<svg xmlns="http://www.w3.org/2000/svg" width="248" height="178.93" viewBox="0 0 248 178.93">
 <g transform="matrix(1.3333 0 0 -1.3333 -61.87 221.42)">
  <g transform="matrix(.66533 0 0 .66533 47.234 32.542)">
   <path d="m0 199.44v-30.264l7.6494-4.0444v-99.272l-7.6494-4.0459v-30.261h75.814c0.827-1.318 1.4701-2.3383 1.6831-2.6763 5.836-9.726 14.271-17.544 24.404-22.617 2.27-1.137 4.6367-2.1352 7.0327-2.9692 6.188-2.154 12.673-3.2625 19.273-3.2915h84.154c19.768 0 38.185 9.79 49.263 26.187 0.532 0.787 1.0524 1.5977 1.5454 2.4097 5.633 9.27 8.6089 19.928 8.6089 30.82v78.741l5.5268 2.9238v30.261h-72.267c-3.031 6.652-7.5755 12.596-13.291 17.275-8.524 6.979-19.295 10.824-30.327 10.824zm3.7896-3.7896h157.63c10.159 0 20.077-3.5393 27.926-9.9653 5.893-4.825 10.434-11.112 13.181-18.135h70.988v-24.188l-5.5268-2.9224v-81.025c0-10.197-2.7871-20.174-8.0581-28.85-0.462-0.76-0.94727-1.5198-1.4473-2.2588-10.373-15.352-27.614-24.517-46.122-24.517h-84.138c-6.18 0.027-12.252 1.0621-18.044 3.0791-2.242 0.78-4.4556 1.7158-6.5815 2.7788-9.5 4.757-17.408 12.091-22.874 21.214-0.263 0.417-1.451 2.307-2.814 4.481h-74.121v24.189l7.6509 4.0459v103.84l-7.6509 4.0444zm72.088-36.652v-10.472l5.5239-2.9238v-72.401h45.924c2.941 0 5.3276 2.3852 5.3276 5.3262v75.144c0 2.941-2.3866 5.3276-5.3276 5.3276zm137.63 0c-2.941 0-5.3262-2.3866-5.3262-5.3276v-77.288c0-22.7-18.402-41.038-41.101-41.038h-79.058c8.179-13.71 23.131-22.914 40.241-22.989h84.1c25.995 0 47.068 21.072 47.068 47.067v86.18l5.5254 2.9238v10.472z" fill="#a89968"/>
   <path d="m145.29 76.924c0-7.026-5.696-12.722-12.722-12.722h-64.095v103.8h64.095c7.026 0 12.722-5.696 12.722-12.722zm16.129 110.17h-149.07v-10.473l7.65-4.046v-114.15l-7.65-4.046v-10.472h149.07c19.64 0 35.562 15.92 35.562 35.561v72.064c0 19.641-15.922 35.562-35.562 35.562" fill="#ba0c2f"/>
  </g>
 </g>
</svg>